# xmcd
#
# Track frame offsets: 
#        150
#        12427
#        18142
#        30997
#        40770
#        51935
#        63635
#        73635
#        82877
#        100040
#        108482
#        124392
#        141345
#        154425
#        165182
#        175072
#        195040
#        212692
#        228802
#        244640
#        266457
#
# Disc length: 3697 seconds
#
# Revision: 3
# Processed by: cddbd v1.5.1PL0 Copyright (c) Steve Scherf et al.
# Submitted via: ExactAudioCopy v0.90b4
#
DISCID=090e6f15
DTITLE=Nitty Gritty Dirt Band - Will the Circle be Unbroken [CD2]
DYEAR=1972
DGENRE=
TTITLE0=Lonesome Fiddle Blues
TTITLE1=Cannonball Rag
TTITLE2=Avalanche
TTITLE3=Flint Hill Special
TTITLE4=Togary Mountain
TTITLE5=Earl's Breakdown
TTITLE6=Orange Blossom Special
TTITLE7=Wabash Cannonball
TTITLE8=Lost Highway
TTITLE9=Doc Watson and Merle Travis: First Meeting (Dialogue)
TTITLE10=Way Downtown
TTITLE11=Down Yonder
TTITLE12=Pins And Needles (In My Heart)
TTITLE13=Honky Tonk Blues
TTITLE14=Sailin' On To Hawaii
TTITLE15=I'm Thinking Tonight Of My Blue Eyes
TTITLE16=I Am A Pilgrim
TTITLE17=Wildwood Flower
TTITLE18=Soldier's Joy
TTITLE19=Will The Circle Be Unbroken
TTITLE20=Both Sides Now
EXTD=
EXTT0=
EXTT1=
EXTT2=
EXTT3=
EXTT4=
EXTT5=
EXTT6=
EXTT7=
EXTT8=
EXTT9=
EXTT10=
EXTT11=
EXTT12=
EXTT13=
EXTT14=
EXTT15=
EXTT16=
EXTT17=
EXTT18=
EXTT19=
EXTT20=
PLAYORDER=
